:version 1.10
:name ASF
:units
  mass 1
  length 1
  angle deg
:documentation
  ASF file generated by Kaydara
:root
  axis xyz
  order  tx ty tz rx ry rz
  position 0 0 0
  orientation 0 0 0
:bonedata
  begin
    id 1
    name LeftUpLegDummy
    direction 1 -2.30186e-007 -8.31532e-007
    length 2.93387
    axis 0 0 0 xyz
  end
  begin
    id 2
    name LeftUpLeg
    direction -1.82929e-007 -1 -1.48925e-009
    length 17.3336
    axis -3.48766 0.00143442 -0.000521554 xyz
    dof rx ry rz
  end
  begin
    id 3
    name LeftLeg
    direction -1.82929e-007 -1 -5.23717e-011
    length 14.9995
    axis 3.68178 -0.00654042 -0.000282425 xyz
    dof rx ry rz
  end
  begin
    id 4
    name LeftFoot
    direction 8.31532e-007 -4.54534e-011 1
    length 6.74421
    axis 1.87234e-006 4.66016e-005 -5.96866e-006 xyz
    dof rx ry rz
  end
  begin
    id 5
    name LeftToes
    direction 0.00818058 -0.00485161 0.999955
    length 3.85048
    axis 1.06247e-005 4.65869e-005 -5.96999e-006 xyz
    dof rx ry rz
  end
  begin
    id 6
    name SpineDummy
    direction -5.8607e-008 0.943407 -0.331637
    length 5.93572
    axis 0 0 0 xyz
  end
  begin
    id 7
    name Spine
    direction -1.04988e-007 0.999988 0.00495137
    length 10.1015
    axis -0.001389 0.000121417 6.61666e-006 xyz
    dof rx ry rz
  end
  begin
    id 8
    name Spine1
    direction 0 0 0
    length 0
    axis -0.001389 0.00012144 6.56766e-006 xyz
    dof rx ry rz
  end
  begin
    id 9
    name RightShoulderDummy
    direction -0.98348 0.17941 -0.0240696
    length 3.59882
    axis -0.001389 0.00012144 6.56766e-006 xyz
  end
  begin
    id 10
    name RightShoulder
    direction -0.978693 0.204882 0.0135597
    length 2.70001
    axis 0.215806 0.000203631 -0.00679732 xyz
    dof rx ry rz
  end
  begin
    id 11
    name RightArm
    direction -1 3.85509e-006 8.31394e-007
    length 10.2459
    axis -23.2009 -0.134239 -0.964098 xyz
    dof rx ry rz
  end
  begin
    id 12
    name RightForeArm
    direction -1 3.85569e-006 8.3129e-007
    length 8.16799
    axis -9.92322 0.0658061 0.17887 xyz
    dof rx ry rz
  end
  begin
    id 13
    name RightHand
    direction -0.992843 -0.0414604 0.112003
    length 5.28593
    axis -0.00960638 0.00330669 -0.185225 xyz
    dof rx ry rz
  end
  begin
    id 14
    name LeftShoulder1Dummy
    direction 0.983523 0.179172 -0.0240748
    length 3.59866
    axis -0.001389 0.00012144 6.56766e-006 xyz
  end
  begin
    id 15
    name LeftShoulder1
    direction 0.978627 0.205195 0.0135605
    length 2.70019
    axis -0.001389 0.00012144 6.57583e-006 xyz
    dof rx ry rz
  end
  begin
    id 16
    name LeftArm
    direction 1 3.51895e-006 -8.60188e-007
    length 10.2459
    axis -23.1894 0.134785 0.967513 xyz
    dof rx ry rz
  end
  begin
    id 17
    name LeftForeArm
    direction 1 3.51921e-006 -7.32029e-007
    length 8.16799
    axis -9.91835 -0.0656957 -0.177789 xyz
    dof rx ry rz
  end
  begin
    id 18
    name LeftHand
    direction 0.992938 -0.0411636 0.11126
    length 5.32135
    axis -0.00960237 -0.00340661 0.185177 xyz
    dof rx ry rz
  end
  begin
    id 19
    name HEadDummy
    direction 1.01974e-006 0.999861 -0.016675
    length 2.99946
    axis -0.001389 0.00012144 6.56766e-006 xyz
  end
  begin
    id 20
    name HEad
    direction -0.0222689 0.980941 0.193023
    length 5.12695
    axis -0.001389 0.00012144 6.56766e-006 xyz
    dof rx ry rz
  end
  begin
    id 21
    name RightUpLegDummy
    direction -1 2.30186e-007 8.31532e-007
    length 2.93387
    axis 0 0 0 xyz
  end
  begin
    id 22
    name RightUpLeg
    direction -1.82966e-007 -1 1.56832e-007
    length 17.3336
    axis -3.4909 -0.000906625 0.00028951 xyz
    dof rx ry rz
  end
  begin
    id 23
    name RightLeg
    direction -1.82786e-007 -1 -1.80317e-007
    length 14.9995
    axis 3.68513 0.0193739 -0.131021 xyz
    dof rx ry rz
  end
  begin
    id 24
    name RightFoot
    direction 8.31721e-007 -4.63324e-011 1
    length 6.74421
    axis 4.81691e-005 -0.120479 -0.188785 xyz
    dof rx ry rz
  end
  begin
    id 25
    name RightToes
    direction 0.00124746 -0.014064 0.9999
    length 3.85082
    axis 0.000481921 0.542163 -0.142575 xyz
    dof rx ry rz
  end
:hierarchy
  begin
    root LeftUpLegDummy SpineDummy RightUpLegDummy
    LeftUpLegDummy LeftUpLeg
    LeftUpLeg LeftLeg
    LeftLeg LeftFoot
    LeftFoot LeftToes
    SpineDummy Spine
    Spine Spine1
    Spine1 RightShoulderDummy LeftShoulder1Dummy HEadDummy
    RightShoulderDummy RightShoulder
    RightShoulder RightArm
    RightArm RightForeArm
    RightForeArm RightHand
    LeftShoulder1Dummy LeftShoulder1
    LeftShoulder1 LeftArm
    LeftArm LeftForeArm
    LeftForeArm LeftHand
    HEadDummy HEad
    RightUpLegDummy RightUpLeg
    RightUpLeg RightLeg
    RightLeg RightFoot
    RightFoot RightToes
  end

:SAMPLES-PER-SECOND 30
:FULLY-SPECIFIED
:DEGREES
66
root  2.83342 33.65 -6.96931 5.68711 9.29143 -0.0702494
LeftUpLeg  -8.40514 6.03308 8.26877
LeftLeg  15.3616 7.46606 1.53689
LeftFoot  0.563148 0.00368068 -0.020138
LeftToes  -24.12 1.85109e-006 5.31342e-008
Spine  2.33789 1.19647 0.101325
Spine1  4.22624 2.36097 0.225028
RightShoulder  0.164306 6.16967 11.0699
RightArm  -35.0862 -11.1543 69.2357
RightForeArm  49.0883 9.81159 1.72437
RightHand  1.07281 -12.6173 -9.30643
LeftShoulder1  0.0653225 -0.160949 -10.3247
LeftArm  -16.43 9.50076 -69.6059
LeftForeArm  35.2061 -13.1317 -2.3488
LeftHand  0.031174 1.86874 2.06853
HEad  -17.0483 -12.5219 3.51063
RightUpLeg  -9.60756 -5.43485 -6.48768
RightLeg  12.9073 4.45962 0.724733
RightFoot  1.13399 -0.0160447 0.169014
RightToes  -39.9878 -0.217989 -0.313593
67
root  2.76138 33.6556 -6.98241 5.73638 9.09916 -0.192608
LeftUpLeg  -8.36757 5.98592 8.48509
LeftLeg  15.1503 7.70661 1.55668
LeftFoot  0.779059 0.00260718 0.0126391
LeftToes  -24.322 1.85109e-006 5.31342e-008
Spine  2.35028 1.1736 0.158633
Spine1  4.24152 2.31304 0.337279
RightShoulder  0.163772 6.12239 11.1054
RightArm  -34.2412 -10.9354 69.7628
RightForeArm  48.4086 10.3529 1.82355
RightHand  1.03701 -12.5547 -9.03173
LeftShoulder1  0.0652467 -0.203339 -10.3718
LeftArm  -15.8419 9.04881 -69.87
LeftForeArm  34.7751 -13.5836 -2.43312
LeftHand  0.0317507 1.71944 2.04791
HEad  -17.2901 -12.5705 3.59146
RightUpLeg  -9.71419 -5.45151 -6.23897
RightLeg  12.8139 4.67276 0.751473
RightFoot  1.1837 -0.0164088 0.176305
RightToes  -39.737 -0.21676 -0.312514
68
root  2.6902 33.6634 -6.99641 5.82019 8.78431 -0.362318
LeftUpLeg  -8.30791 5.76889 8.72733
LeftLeg  14.884 8.2499 1.62606
LeftFoot  1.00012 0.000849595 0.0538707
LeftToes  -24.438 1.85109e-006 5.31342e-008
Spine  2.35805 1.19096 0.23332
Spine1  4.248 2.34938 0.478429
RightShoulder  0.163378 6.06726 11.0331
RightArm  -33.0423 -10.6728 70.3932
RightForeArm  47.4637 10.9722 1.93771
RightHand  1.00697 -12.5987 -8.7285
LeftShoulder1  0.0651619 -0.209461 -10.3229
LeftArm  -15.1096 8.63117 -70.2745
LeftForeArm  34.1823 -14.1005 -2.53003
LeftHand  0.0307127 1.60634 1.81274
HEad  -17.529 -12.5811 3.69091
RightUpLeg  -9.8972 -5.46561 -5.94309
RightLeg  12.7473 4.99049 0.796475
RightFoot  1.26249 -0.0170528 0.188866
RightToes  -39.5132 -0.215398 -0.311439
69
root  2.61625 33.6711 -7.00821 5.91657 8.46449 -0.498378
LeftUpLeg  -8.2777 5.78415 8.9544
LeftLeg  14.6668 8.55515 1.65232
LeftFoot  1.21531 -0.000992954 0.093613
LeftToes  -24.5448 1.85109e-006 5.31342e-008
Spine  2.3546 1.20749 0.294951
Spine1  4.2328 2.38655 0.592961
RightShoulder  0.163251 5.96088 10.9765
RightArm  -31.9098 -10.3119 71.0504
RightForeArm  46.7685 11.4862 2.03266
RightHand  0.973799 -12.6143 -8.41911
LeftShoulder1  0.0650646 -0.190903 -10.2993
LeftArm  -14.5045 8.19895 -70.6603
LeftForeArm  33.7848 -14.5282 -2.61048
LeftHand  0.0304489 1.60236 1.76043
HEad  -17.6179 -12.5642 3.63558
RightUpLeg  -10.1004 -5.69668 -5.6671
RightLeg  12.7163 5.52321 0.878134
RightFoot  1.31808 -0.0179212 0.205865
RightToes  -39.4237 -0.213896 -0.310394
70
root  2.53989 33.6771 -7.01457 5.9906 8.1915 -0.590561
LeftUpLeg  -8.24245 5.82178 9.14562
LeftLeg  14.4904 8.80178 1.67165
LeftFoot  1.42143 -0.00289131 0.133462
LeftToes  -24.7203 1.85109e-006 5.31342e-008
Spine  2.34928 1.20147 0.34123
Spine1  4.21638 2.382 0.674409
RightShoulder  0.163399 5.92955 10.9909
RightArm  -31.1464 -9.96784 71.6526
RightForeArm  46.3708 11.9805 2.1239
RightHand  0.942321 -12.4737 -8.23228
LeftShoulder1  0.0649513 -0.230753 -10.3145
LeftArm  -14.0813 7.83606 -70.9612
LeftForeArm  33.4994 -14.8783 -2.67655
LeftHand  0.0306611 1.47301 1.71441
HEad  -17.6503 -12.5069 3.51501
RightUpLeg  -10.2238 -5.90253 -5.43385
RightLeg  12.6265 5.99114 0.942629
RightFoot  1.3434 -0.0184987 0.219332
RightToes  -39.1674 -0.211866 -0.309405
71
root  2.46491 33.6828 -7.0158 6.06788 7.97204 -0.711888
LeftUpLeg  -8.2535 6.23243 9.37363
LeftLeg  14.3576 8.67506 1.62705
LeftFoot  1.62241 -0.00401298 0.162743
LeftToes  -25.0375 1.85109e-006 5.31342e-008
Spine  2.34417 1.17475 0.411442
Spine1  4.20133 2.33756 0.799483
RightShoulder  0.1638 5.85918 10.9565
RightArm  -30.0593 -9.61748 72.1879
RightForeArm  46.0586 12.4988 2.21977
RightHand  0.950329 -12.4805 -8.30036
LeftShoulder1  0.0648187 -0.26507 -10.2389
LeftArm  -13.6182 7.55293 -71.3797
LeftForeArm  33.0709 -15.1936 -2.73637
LeftHand  0.0306871 1.54508 1.76343
HEad  -17.6215 -12.3182 3.29215
RightUpLeg  -10.3465 -6.15964 -5.17682
RightLeg  12.569 6.47283 1.01144
RightFoot  1.33883 -0.0188677 0.230577
RightToes  -38.8335 -0.210697 -0.308497
